# xmcd
#
# Track frame offsets:
#	150
#	13935
#	40415
#	52871
#	72402
#	88176
#	127637
#	155247
#	191189
#
# Disc length: 2824 seconds
#
# Revision: 1
# Processed by: cddbd v1.5.2PL0 Copyright (c) Steve Scherf et al.
# Submitted via: audiograbber 1.83.01
#
DISCID=7b0b0609
DTITLE=Grateful Dead - 80-10-10 Warfield Theatre, San Francisco CA
DYEAR=1900
DGENRE=
TTITLE0=On The Road Again
TTITLE1=It Must Have Been The Roses
TTITLE2=Monkey and The Engineer
TTITLE3=Jack-A-Roe
TTITLE4=Dark Hollow
TTITLE5=To Lay Me Down
TTITLE6=Heaven Help The Fool
TTITLE7=Bird Song
TTITLE8=Ripple
EXTD=
EXTT0=
EXTT1=
EXTT2=
EXTT3=
EXTT4=
EXTT5=
EXTT6=
EXTT7=
EXTT8=
PLAYORDER=
